<svg xmlns:dc="http://purl.org/dc/elements/1.1/" 
  xmlns:cc="http://creativecommons.org/ns#" 
  xmlns:rdf="http://www.w3.org/1999/02/22-rdf-syntax-ns#" 
  xmlns:svg="http://www.w3.org/2000/svg" 
  xmlns="http://www.w3.org/2000/svg" viewBox="0 0 81.639999 16.586666" height="16.586666" width="81.639999" xml:space="preserve" id="svg2" version="1.1">
  <g transform="matrix(1.3333333,0,0,-1.3333333,0,16.586667)" id="g10">
    <g transform="scale(0.1)" id="g12">
      <path id="path14" style="fill:rgb(242, 242, 242);fill-opacity:1;fill-rule:nonzero;stroke:none" d="M 0,9.23828 C 0,6.62891 0.921875,4.44141 2.75,2.66016 4.58984,0.890625 6.87109,0 9.60156,0 c 2.83984,0 5.17974,0.890625 7.01954,2.66016 1.8281,1.78125 2.75,3.96875 2.75,6.57812 V 88.3398 L 51.8984,34.4805 c 2.3711,-4.0313 5.6329,-6.0391 9.7813,-6.0391 4.1406,0 7.3984,2.0078 9.7812,6.0391 L 103.98,88.3398 V 9.23828 c 0,-2.60937 0.891,-4.79687 2.668,-6.57812 C 108.43,0.890625 110.738,0 113.578,0 c 2.852,0 5.184,0.890625 7.024,2.66016 1.839,1.78125 2.757,3.96875 2.757,6.57812 V 112.328 c 0,3.32 -1.16,6.16 -3.468,8.543 -2.313,2.367 -5.301,3.551 -8.969,3.551 -4.871,0 -8.481,-2.07 -10.852,-6.223 L 61.5,53.6797 23.2891,118.199 c -2.3789,4.153 -5.9883,6.223 -10.8477,6.223 -3.67187,0 -6.66015,-1.184 -8.97265,-3.551 C 1.16016,118.488 0,115.648 0,112.328 Z m 142.961,-2.75 C 148.422,2.16016 154.988,0 162.691,0 171.578,0 179.102,1.66016 185.27,4.96875 186.809,1.66016 189.59,0 193.621,0 c 2.488,0 4.617,0.859375 6.399,2.57031 1.781,1.71875 2.671,3.82813 2.671,6.3086 V 53.5 c 0,9.3594 -2.261,16.5898 -6.761,21.6914 -5.45,6.0391 -13.68,9.0586 -24.7,9.0586 -7.949,0 -15.589,-1.4805 -22.929,-4.4414 -6.281,-2.6094 -9.422,-5.6875 -9.422,-9.25 0,-1.8867 0.621,-3.457 1.859,-4.707 1.25,-1.2422 2.813,-1.8633 4.711,-1.8633 1.422,0 4.332,0.9414 8.711,2.8398 5.211,2.25 10.25,3.3828 15.11,3.3828 5.332,0 9.3,-1.539 11.91,-4.6211 2.25,-2.7304 3.379,-6.7617 3.379,-12.0898 V 51.3711 C 168.789,50.0586 157.422,47.9883 150.43,45.1484 140,40.8789 134.789,33.9492 134.789,24.3516 c 0,-7.5899 2.723,-13.543 8.172,-17.86332 m 13.961,9.77342 c -3.141,1.9571 -4.711,4.7696 -4.711,8.4375 0,8.1797 10.777,12.8594 32.348,14.0508 V 17.9492 c -5.219,-3.0781 -10.61,-4.6211 -16.18,-4.6211 -4.5,0 -8.32,0.9805 -11.457,2.9336 m 132.898,0.2696 -24.531,27.7304 22.57,24.8789 c 2.129,2.3711 3.2,4.5 3.2,6.3985 0,2.3711 -0.918,4.4101 -2.758,6.1328 -1.84,1.7187 -4.063,2.5781 -6.66,2.5781 -3.09,0 -6.161,-1.7812 -9.243,-5.3281 l -18.847,-22.9336 -18.84,23.1133 c -2.961,3.4297 -6.039,5.1484 -9.242,5.1484 -2.84,0 -5.149,-0.8906 -6.93,-2.6719 -1.777,-1.7695 -2.668,-3.9062 -2.668,-6.3867 0,-2.1406 1.18,-4.5117 3.559,-7.1133 L 241.469,43.0117 219.07,17.7695 c -0.121,-0.1211 -0.468,-0.4687 -1.07,-1.0586 -0.59,-0.6015 -0.949,-0.9804 -1.059,-1.1601 -0.121,-0.1797 -0.39,-0.5313 -0.8,-1.0703 -0.422,-0.5313 -0.711,-0.9492 -0.891,-1.2422 -0.18,-0.2969 -0.391,-0.6797 -0.621,-1.1602 -0.238,-0.4687 -0.391,-0.9492 -0.449,-1.4179 -0.059,-0.4688 -0.09,-1.01176 -0.09,-1.60161 0,-2.48828 0.922,-4.61718 2.762,-6.39843 C 218.68,0.890625 221.031,0 223.871,0 c 3.559,0 6.688,1.66016 9.418,4.96875 l 20.262,25.07035 19.73,-24.00004 c 1.309,-1.41797 2.199,-2.39843 2.668,-2.92968 0.473,-0.53907 1.422,-1.1875 2.852,-1.96094 C 280.219,0.378906 281.75,0 283.422,0 c 2.84,0 5.18,0.890625 7.019,2.66016 1.829,1.78125 2.75,3.96875 2.75,6.57812 0,2.25002 -1.132,4.68362 -3.371,7.29302 m 87.129,100.2497 c -3.14,2.25 -7,3.879 -11.558,4.891 -4.563,1 -8.653,1.707 -12.262,2.129 -3.617,0.41 -6.731,0.621 -9.328,0.621 -14.223,0 -25.223,-2.992 -32.973,-8.973 -7.769,-5.988 -11.648,-13.961 -11.648,-23.9099 0,-12.211 5.57,-21.3907 16.711,-27.5508 4.269,-2.3789 10.578,-4.8867 18.929,-7.5586 8.36,-2.6602 13.18,-4.2383 14.489,-4.7109 10.191,-4.0274 15.281,-9.4805 15.281,-16.3477 0,-5.2227 -1.918,-9.4805 -5.77,-12.8008 -3.859,-3.3203 -9.75,-4.9805 -17.691,-4.9805 -5.328,0 -10.129,0.8594 -14.399,2.5821 -4.261,1.7187 -7.91,3.4062 -10.929,5.0664 -3.02,1.6601 -5.539,2.4922 -7.551,2.4922 -2.609,0 -4.859,-0.9219 -6.762,-2.7617 -1.886,-1.8399 -2.84,-4.1172 -2.84,-6.8399 0,-5.3281 4.653,-9.68749 13.954,-13.07031 C 321.898,1.69141 331.531,0 341.488,0 c 13.153,0 23.903,3.28906 32.262,9.85938 8.352,6.58202 12.531,15.60942 12.531,27.10942 0,11.7304 -4.922,20.621 -14.75,26.6601 -3.203,2.0117 -6.672,3.7617 -10.402,5.25 -3.731,1.4727 -8.301,3.0195 -13.688,4.6211 -5.39,1.6016 -8.972,2.6914 -10.75,3.2813 -11.019,3.7968 -16.531,8.9492 -16.531,15.4687 0,9.48 7.52,14.219 22.57,14.219 5.571,0 11.309,-1.16 17.239,-3.469 5.929,-2.309 10.011,-3.4609 12.269,-3.4609 2.602,0 4.821,0.8909 6.66,2.6599 1.84,1.781 2.762,3.973 2.762,6.582 0,3.078 -1.57,5.75 -4.711,8 m 43.672,-55.6404 c 4.859,5.2188 10.957,7.8203 18.309,7.8203 7.218,0 13.269,-2.6015 18.129,-7.8203 4.742,-5.332 7.113,-11.6718 7.113,-19.0195 0,-7.3516 -2.371,-13.6797 -7.113,-19.0195 -4.86,-5.211 -10.911,-7.8203 -18.129,-7.8203 -7.352,0 -13.45,2.6093 -18.309,7.8203 -4.621,5.2187 -6.93,11.5586 -6.93,19.0195 0,7.4687 2.309,13.8086 6.93,19.0195 M 408.18,11.5508 C 416.23,3.85156 426.488,0 438.93,0 c 12.441,0 22.691,3.85156 30.75,11.5508 8.289,7.5781 12.441,17.7773 12.441,30.5703 0,12.3281 -4.152,22.457 -12.441,30.3984 -8.418,7.8203 -18.66,11.7305 -30.75,11.7305 -12.09,0 -22.34,-3.9102 -30.75,-11.7305 -8.418,-8.0586 -12.621,-18.1914 -12.621,-30.3984 0,-12.6797 4.203,-22.8711 12.621,-30.5703 m 107.871,81.9375 c 0,9.8397 3.789,14.7617 11.379,14.7617 2.359,0 5.148,-0.75 8.351,-2.23 3.199,-1.481 5.629,-2.219 7.289,-2.219 2.008,0 3.641,0.648 4.891,1.961 1.238,1.297 1.859,3.019 1.859,5.148 0,4.149 -3.019,7.469 -9.058,9.961 -4.981,2.25 -10.731,3.367 -17.242,3.367 -17.192,0 -25.782,-9.828 -25.782,-29.4997 V 82.6484 h -7.289 c -1.89,0 -3.519,-0.7382 -4.879,-2.2187 -1.371,-1.4883 -2.05,-3.168 -2.05,-5.0703 0,-2.0078 0.679,-3.6992 2.05,-5.0586 1.36,-1.3711 2.989,-2.0508 4.879,-2.0508 h 7.289 V 8.87891 c 0,-2.48047 0.891,-4.58985 2.672,-6.3086 C 502.191,0.859375 504.32,0 506.809,0 c 2.492,0 4.652,0.859375 6.48,2.57031 1.84,1.71875 2.762,3.82813 2.762,6.3086 V 68.25 h 18.84 c 2.007,0 3.668,0.6797 4.98,2.0508 1.301,1.3594 1.949,3.0508 1.949,5.0586 0,1.9023 -0.679,3.582 -2.039,5.0703 -1.359,1.4805 -3,2.2187 -4.89,2.2187 h -18.84 z m 32.328,-12.9688 c -1.359,-1.4179 -2.039,-3.1406 -2.039,-5.1601 0,-2.0078 0.68,-3.6992 2.039,-5.0586 1.359,-1.3711 2.992,-2.0508 4.891,-2.0508 h 6.761 V 27.8984 c 0,-8.4101 2.098,-15.1679 6.309,-20.25777 C 570.539,2.53906 577.199,0 586.328,0 c 5.692,0 11.082,1.12891 16.184,3.37109 6.508,3.07813 9.769,6.57813 9.769,10.48831 0,2.1289 -0.59,3.8789 -1.769,5.25 -1.192,1.3515 -2.91,2.039 -5.16,2.039 -1.543,0 -3.821,-0.9765 -6.84,-2.9296 -3.024,-1.9571 -5.961,-2.9375 -8.801,-2.9375 -7.59,0 -11.383,4.7382 -11.383,14.2187 v 38.75 h 20.274 c 1.886,0 3.519,0.7109 4.878,2.1406 1.36,1.418 2.051,3.0782 2.051,4.9688 0,2.0195 -0.691,3.7422 -2.051,5.1601 -1.359,1.4219 -2.992,2.1289 -4.878,2.1289 h -20.274 v 12.6211 c 0,2.4922 -0.918,4.5899 -2.75,6.3085 -1.84,1.723 -4,2.582 -6.488,2.582 -2.488,0 -4.621,-0.859 -6.399,-2.582 -1.781,-1.7186 -2.66,-3.8163 -2.66,-6.3085 V 82.6484 h -6.761 c -1.899,0 -3.532,-0.707 -4.891,-2.1289" />
    </g>
  </g>
</svg>