<svg height="439pt" viewBox="-116 0 438 439" width="439pt" 
    xmlns="http://www.w3.org/2000/svg">
    <path fill="#ffffff" d="m131.265625 340.039062c0 15.367188-12.457031 27.824219-27.824219 27.824219-15.367187 0-27.828125-12.457031-27.828125-27.824219 0-15.367187 12.460938-27.828124 27.828125-27.828124 15.367188 0 27.824219 12.460937 27.824219 27.828124zm0 0"/>
    <path fill="#ffffff" d="m179.492188 0h-152.101563v120.296875h152.101563zm-92.941407 86.457031c0 5.523438-4.476562 10-10 10-5.523437 0-10-4.476562-10-10v-47c0-5.523437 4.476563-10 10-10 5.523438 0 10 4.476563 10 10zm59.160157 0c0 5.523438-4.476563 10-10 10-5.523438 0-10-4.476562-10-10v-47c0-5.523437 4.476562-10 10-10 5.523437 0 10 4.476563 10 10zm0 0"/>
    <path fill="#ffffff" d="m.5 334.984375c0 57.351563 46.179688 104.015625 102.941406 104.015625 56.761719 0 102.941406-46.660156 102.941406-104.015625v-194.683594h-205.882812zm102.941406-42.773437c26.414063 0 47.824219 21.414062 47.824219 47.828124 0 26.414063-21.410156 47.824219-47.824219 47.824219-26.414062 0-47.828125-21.410156-47.828125-47.824219.03125-26.402343 21.425781-47.796874 47.828125-47.828124zm0 0"/>
</svg>